<?xml version="1.0" encoding="utf-8"?>
<!-- Generator: Adobe Illustrator 15.1.0, SVG Export Plug-In . SVG Version: 6.00 Build 0)  -->
<!DOCTYPE svg PUBLIC "-//W3C//DTD SVG 1.1//EN" "http://www.w3.org/Graphics/SVG/1.1/DTD/svg11.dtd">
<svg version="1.1" id="Selected_Items" xmlns="http://www.w3.org/2000/svg" xmlns:xlink="http://www.w3.org/1999/xlink" x="0px"
	 y="0px" width="394px" height="143px" viewBox="0 0 394 143" enable-background="new 0 0 394 143" xml:space="preserve">
<path fill-rule="evenodd" clip-rule="evenodd" fill="#FFFFFF" d="M317.354,7.488c3.739,0,6.994,1.388,9.771,4.163
	c2.718,2.775,4.079,6.117,4.079,10.025c0,3.851-1.361,7.165-4.079,9.94c-2.718,2.719-5.919,4.078-9.601,4.078
	c-3.908,0-7.25-1.387-10.024-4.162c-2.661-2.833-3.994-6.231-3.994-10.195c0-3.795,1.333-7.052,3.994-9.77
	C310.217,8.848,313.503,7.488,317.354,7.488z M328.143,43.17v86.656h-21.748V43.17H328.143z M372.236,11.227V43.17h12.914v18.691
	h-12.914v67.965h-21.749V61.861h-11.129V43.17h11.129V11.227H372.236z M278.529,119.037c-8.214,8.665-17.927,12.998-29.141,12.998
	c-4.984,0-9.629-0.878-13.933-2.634c-4.304-1.812-8.581-4.729-12.828-8.749v9.174h-21.58V9.697h21.58v43.074
	c3.964-3.965,8.212-6.938,12.743-8.92c4.588-1.926,9.486-2.889,14.698-2.889c11.327,0,20.928,4.276,28.8,12.828
	c7.93,8.552,11.894,19.512,11.894,32.879C290.762,99.582,286.685,110.371,278.529,119.037z M52.118,12.246L59,32.806
	c-6.457,1.699-12.12,5.04-16.991,10.024c-7.419,7.533-11.13,17.133-11.13,28.8c0,0.396,0,0.793,0,1.189
	c0,0.566,0.028,1.133,0.085,1.699c0.68,11.554,5.324,20.843,13.933,27.866c7.193,5.89,15.49,8.835,24.892,8.835
	c10.591,0,19.597-3.823,27.017-11.47c7.419-7.646,11.129-17.076,11.129-28.29c0-11.157-3.738-20.588-11.214-28.292
	c-4.645-4.871-9.94-8.184-15.887-9.939l-4.927-14.104l13.254-6.287c8.552,2.945,16.283,7.901,23.193,14.868
	c11.951,12.007,17.926,26.648,17.926,43.922c0,17.104-5.919,31.576-17.756,43.412C100.798,126.881,86.554,132.8,69.789,132.8
	c-17.614,0-32.254-6.088-43.922-18.266C15.048,103.149,9.271,89.812,8.535,74.52C8.479,73.954,8.45,73.386,8.45,72.82
	c0-0.509,0-1.047,0-1.614c0-11.214,2.718-21.522,8.156-30.924c5.38-9.402,12.828-16.822,22.343-22.259
	C43.197,15.531,47.587,13.605,52.118,12.246z M162.478,43.17v10.875c1.982-4.248,4.644-7.505,7.985-9.77
	c3.398-2.209,7.08-3.314,11.044-3.314c2.833,0,5.778,0.736,8.836,2.208l-6.797,18.691c-2.548-1.247-4.645-1.869-6.287-1.869
	c-3.341,0-6.145,2.067-8.41,6.201c-2.322,4.135-3.484,12.263-3.484,24.384v39.249h-21.579V43.17H162.478z M262.387,68.148
	c-4.418-4.757-10.025-7.137-16.822-7.137c-6.853,0-12.546,2.351-17.076,7.052c-4.532,4.645-6.797,10.732-6.797,18.266
	c0,7.702,2.265,13.934,6.797,18.69c4.53,4.757,10.223,7.137,17.076,7.137c6.627,0,12.206-2.407,16.736-7.222
	c4.531-4.871,6.796-11.044,6.796-18.521C269.098,78.995,266.861,72.905,262.387,68.148z M89.244,71.546
	c0,5.381-1.926,9.968-5.777,13.763c-3.795,3.851-8.383,5.777-13.763,5.777s-9.997-1.926-13.848-5.777
	c-3.795-3.795-5.692-8.381-5.692-13.763c0-5.381,1.897-9.997,5.692-13.848c3.852-3.795,8.468-5.692,13.848-5.692
	s9.968,1.897,13.763,5.692C87.318,61.549,89.244,66.165,89.244,71.546z"/>
</svg>
